<?xml version="1.0" encoding="UTF-8"?>
<svg version="1.1" xmlns="http://www.w3.org/2000/svg" width="40" height="40">
<path d="M0 0 C13.2 0 26.4 0 40 0 C40 13.2 40 26.4 40 40 C26.8 40 13.6 40 0 40 C0 26.8 0 13.6 0 0 Z " fill="#E3E7DA" transform="translate(0,0)"/>
<path d="M0 0 C0.33 1.32 0.66 2.64 1 4 C1.61875 3.649375 2.2375 3.29875 2.875 2.9375 C3.57625 2.628125 4.2775 2.31875 5 2 C5.66 2.33 6.32 2.66 7 3 C8.134375 3 9.26875 3 10.4375 3 C14 3 14 3 17 4 C17.33 3.01 17.66 2.02 18 1 C18.5775 1.969375 19.155 2.93875 19.75 3.9375 C21.64792862 7.09469292 21.64792862 7.09469292 24.25 7.875 C25.11625 7.936875 25.11625 7.936875 26 8 C26 7.34 26 6.68 26 6 C25.01 5.67 24.02 5.34 23 5 C23.598125 4.71125 24.19625 4.4225 24.8125 4.125 C27.19327792 2.95257974 27.19327792 2.95257974 30 1 C30.33 1.66 30.66 2.32 31 3 C31.99 3 32.98 3 34 3 C34.66 2.34 35.32 1.68 36 1 C36 1.99 36 2.98 36 4 C36.66 3.67 37.32 3.34 38 3 C37.505 2.01 37.505 2.01 37 1 C37.99 1 38.98 1 40 1 C40 4.3 40 7.6 40 11 C26.8 11 13.6 11 0 11 C0 7.37 0 3.74 0 0 Z " fill="#E0E5D7" transform="translate(0,29)"/>
<path d="M0 0 C2.475 0.99 2.475 0.99 5 2 C5 2.99 5 3.98 5 5 C3.0625 4.1875 3.0625 4.1875 1 3 C0.67 2.01 0.34 1.02 0 0 Z M0 3 C0 3.99 0 4.98 0 6 C-0.33 6.33 -0.66 6.66 -1 7 C-0.01 7.99 0.98 8.98 2 10 C1.01 10.33 0.02 10.66 -1 11 C-0.67 11.99 -0.34 12.98 0 14 C-0.66 14 -1.32 14 -2 14 C-2 13.34 -2 12.68 -2 12 C-2.66 12 -3.32 12 -4 12 C-4 15.96 -4 19.92 -4 24 C-3.01 24.33 -2.02 24.66 -1 25 C-0.67 24.67 -0.34 24.34 0 24 C0.99 24 1.98 24 3 24 C3.33 25.32 3.66 26.64 4 28 C3.01 28.33 2.02 28.66 1 29 C1.66 29.33 2.32 29.66 3 30 C3 30.66 3 31.32 3 32 C0.6875 32.3125 0.6875 32.3125 -2 32 C-3.8125 29.5 -3.8125 29.5 -5 27 C-6.11375 27.2475 -6.11375 27.2475 -7.25 27.5 C-10 28 -10 28 -14 28 C-13.67 26.68 -13.34 25.36 -13 24 C-13 24.99 -13 25.98 -13 27 C-12.34 27 -11.68 27 -11 27 C-11 26.34 -11 25.68 -11 25 C-9.35 24.67 -7.7 24.34 -6 24 C-6.33 20.37 -6.66 16.74 -7 13 C-8.98 13.99 -8.98 13.99 -11 15 C-10.34 13.68 -9.68 12.36 -9 11 C-9.99 10.34 -10.98 9.68 -12 9 C-10.68 8.67 -9.36 8.34 -8 8 C-8.33 7.01 -8.66 6.02 -9 5 C-8.2575 5.226875 -7.515 5.45375 -6.75 5.6875 C-3.94085007 6.29476698 -3.94085007 6.29476698 -1.6875 4.5625 C-1.130625 4.046875 -0.57375 3.53125 0 3 Z " fill="#A9BAA0" transform="translate(23,5)"/>
<path d="M0 0 C2.475 0.99 2.475 0.99 5 2 C5 2.99 5 3.98 5 5 C3.0625 4.1875 3.0625 4.1875 1 3 C0.67 2.01 0.34 1.02 0 0 Z M0 3 C0 3.99 0 4.98 0 6 C-0.33 6.33 -0.66 6.66 -1 7 C-0.01 7.99 0.98 8.98 2 10 C1.01 10.33 0.02 10.66 -1 11 C-0.67 11.99 -0.34 12.98 0 14 C-0.66 14 -1.32 14 -2 14 C-2.33 13.34 -2.66 12.68 -3 12 C-5.02463255 11.34786708 -5.02463255 11.34786708 -7 11 C-7.66 12.32 -8.32 13.64 -9 15 C-9.66 15 -10.32 15 -11 15 C-10.34 13.68 -9.68 12.36 -9 11 C-9.99 10.34 -10.98 9.68 -12 9 C-10.68 8.67 -9.36 8.34 -8 8 C-8.33 7.01 -8.66 6.02 -9 5 C-8.2575 5.226875 -7.515 5.45375 -6.75 5.6875 C-3.94085007 6.29476698 -3.94085007 6.29476698 -1.6875 4.5625 C-1.130625 4.046875 -0.57375 3.53125 0 3 Z " fill="#738863" transform="translate(23,5)"/>
<path d="M0 0 C3.3 0 6.6 0 10 0 C10.33 1.32 10.66 2.64 11 4 C8.9375 6.125 8.9375 6.125 6 8 C2.1875 7.25 2.1875 7.25 -1 6 C-1 2 -1 2 0 0 Z " fill="#C3C8BA" transform="translate(13,4)"/>
<path d="M0 0 C4.62 0 9.24 0 14 0 C13.01 0.66 12.02 1.32 11 2 C11.33 2.99 11.66 3.98 12 5 C11.34 5 10.68 5 10 5 C9.67 4.34 9.34 3.68 9 3 C6.97536745 2.34786708 6.97536745 2.34786708 5 2 C4.34 3.32 3.68 4.64 3 6 C2.34 6 1.68 6 1 6 C1.66 4.68 2.32 3.36 3 2 C2.01 1.34 1.02 0.68 0 0 Z " fill="#577642" transform="translate(11,14)"/>
<path d="M0 0 C3.63 0 7.26 0 11 0 C11 0.99 11 1.98 11 3 C7.28745409 4.2375153 3.879454 4 0 4 C0 2.68 0 1.36 0 0 Z " fill="#A6BAA3" transform="translate(28,29)"/>
<path d="M0 0 C0.33 0 0.66 0 1 0 C1 1.65 1 3.3 1 5 C1.66 5.33 2.32 5.66 3 6 C-2.53846154 6.36923077 -2.53846154 6.36923077 -4.875 4.5 C-5.24625 4.005 -5.6175 3.51 -6 3 C-5.195625 2.87625 -4.39125 2.7525 -3.5625 2.625 C-2.716875 2.41875 -1.87125 2.2125 -1 2 C-0.67 1.34 -0.34 0.68 0 0 Z " fill="#D2DACB" transform="translate(29,30)"/>
<path d="M0 0 C0.33 0.66 0.66 1.32 1 2 C0.67 2.99 0.34 3.98 0 5 C-1.65 5 -3.3 5 -5 5 C-5 4.34 -5 3.68 -5 3 C-4.34 3 -3.68 3 -3 3 C-3 2.34 -3 1.68 -3 1 C-2.01 0.67 -1.02 0.34 0 0 Z " fill="#CDD6C7" transform="translate(13,32)"/>
<path d="M0 0 C0.33 0.99 0.66 1.98 1 3 C1.66 3 2.32 3 3 3 C3 2.34 3 1.68 3 1 C4.65 1.33 6.3 1.66 8 2 C8 2.66 8 3.32 8 4 C5.36 4 2.72 4 0 4 C0 2.68 0 1.36 0 0 Z " fill="#99B098" transform="translate(9,29)"/>
</svg>
