<?xml version="1.0" encoding="UTF-8"?>
<svg version="1.1" xmlns="http://www.w3.org/2000/svg" width="140" height="140">
<path d="M0 0 C46.2 0 92.4 0 140 0 C140 46.2 140 92.4 140 140 C93.8 140 47.6 140 0 140 C0 93.8 0 47.6 0 0 Z " fill="#E1E5D8" transform="translate(0,0)"/>
<path d="M0 0 C5.38348037 0.63335063 9.20910893 3.20910893 13 7 C13 8.32 13 9.64 13 11 C13.66 11 14.32 11 15 11 C15.04125 10.278125 15.0825 9.55625 15.125 8.8125 C16.39074179 4.74404426 18.49329792 3.31574666 22 1 C25.375 0.6875 25.375 0.6875 28 1 C27.59007812 1.47050781 27.18015625 1.94101562 26.7578125 2.42578125 C26.21898437 3.04839844 25.68015625 3.67101563 25.125 4.3125 C24.59132813 4.92738281 24.05765625 5.54226562 23.5078125 6.17578125 C21.8359553 8.13498212 21.8359553 8.13498212 20 11 C20.88751953 10.94779297 20.88751953 10.94779297 21.79296875 10.89453125 C26.71926971 10.72576727 29.98875094 10.76512172 34 14 C34 14.33 34 14.66 34 15 C29.38 15.33 24.76 15.66 20 16 C20.928125 16.5775 21.85625 17.155 22.8125 17.75 C27.40883978 20.99447514 27.40883978 20.99447514 29 24 C29.1875 27.25 29.1875 27.25 29 30 C27.95541681 29.12848385 26.91453593 28.25253033 25.875 27.375 C25.29492188 26.88773438 24.71484375 26.40046875 24.1171875 25.8984375 C21.30641377 23.37807582 18.66951981 20.66951981 16 18 C16 29.55 16 41.1 16 53 C14.68 53 13.36 53 12 53 C11.85465986 41.29204426 12.28874793 29.68485544 13 18 C12.49210937 18.44730469 11.98421875 18.89460938 11.4609375 19.35546875 C7.35357725 22.96286942 3.21678879 26.52114925 -1 30 C-0.58675744 24.7311573 0.22944438 21.77055562 4 18 C5.32 17.34 6.64 16.68 8 16 C1.07 15.505 1.07 15.505 -6 15 C-1.5 10.5 -1.5 10.5 3.25 10.25 C4.58804688 10.16492188 4.58804688 10.16492188 5.953125 10.078125 C6.62859375 10.05234375 7.3040625 10.0265625 8 10 C7.4225 9.44570313 6.845 8.89140625 6.25 8.3203125 C5.5075 7.59585938 4.765 6.87140625 4 6.125 C3.2575 5.40570313 2.515 4.68640625 1.75 3.9453125 C0 2 0 2 0 0 Z " fill="#496B34" transform="translate(50,40)"/>
<path d="M0 0 C7.9282655 5.49572949 13.35718732 13.32473624 15.75 22.6796875 C16.87397769 32.22718341 15.3371322 41.69807007 9.75 49.6796875 C9.42 49.0196875 9.09 48.3596875 8.75 47.6796875 C9.33738173 46.03265732 9.99615119 44.41085141 10.6875 42.8046875 C13.8681474 34.36713675 13.94340967 26.06522103 10.65234375 17.6328125 C7.01726904 9.76468543 0.97164674 3.89449182 -6.875 0.2421875 C-15.68782155 -2.8897537 -25.52115565 -2.60426865 -34.00390625 1.3515625 C-41.56857311 5.82458291 -47.55873062 12.00856255 -50.5625 20.3046875 C-52.35068875 29.26299231 -52.03800144 37.50302461 -48.02734375 45.75390625 C-47.77082031 46.38941406 -47.51429687 47.02492187 -47.25 47.6796875 C-47.58 48.3396875 -47.91 48.9996875 -48.25 49.6796875 C-49.06752303 48.09894186 -49.87881997 46.51497527 -50.6875 44.9296875 C-51.13996094 44.04796875 -51.59242187 43.16625 -52.05859375 42.2578125 C-55.35433427 35.12604613 -55.3655993 26.47842517 -53.125 18.9921875 C-49.57067287 9.8501275 -43.49319947 1.97687722 -34.75 -2.640625 C-22.93706276 -7.55123554 -10.96093393 -6.43193692 0 0 Z " fill="#474E3E" transform="translate(84.25,30.3203125)"/>
<path d="M0 0 C-0.54487556 3.66064288 -0.54487556 3.66064288 -2.56640625 5.16796875 C-3.22511719 5.50441406 -3.88382813 5.84085938 -4.5625 6.1875 C-11.14201446 10.06894019 -16.46625508 15.43425764 -19 22.75 C-21.19551745 31.99126301 -20.94708429 40.49606565 -16.77734375 49.07421875 C-16.52082031 49.70972656 -16.26429687 50.34523437 -16 51 C-16.33 51.66 -16.66 52.32 -17 53 C-17.81752303 51.41925436 -18.62881997 49.83528777 -19.4375 48.25 C-19.88996094 47.36828125 -20.34242187 46.4865625 -20.80859375 45.578125 C-24.10433427 38.44635863 -24.1155993 29.79873767 -21.875 22.3125 C-18.39491149 13.36138862 -12.32337252 5.55835538 -3.8828125 0.80859375 C-2 0 -2 0 0 0 Z " fill="#505747" transform="translate(53,27)"/>
<path d="M0 0 C0.99 0 1.98 0 3 0 C3.33 11.88 3.66 23.76 4 36 C2.68 36 1.36 36 0 36 C0 24.12 0 12.24 0 0 Z " fill="#577743" transform="translate(62,57)"/>
<path d="M0 0 C5.38348037 0.63335063 9.20910893 3.20910893 13 7 C13 8.32 13 9.64 13 11 C13.66 11 14.32 11 15 11 C15 11.66 15 12.32 15 13 C13.1875 13.6875 13.1875 13.6875 11 14 C9.5546875 12.734375 9.5546875 12.734375 8 11 C7.49339844 10.44441406 6.98679687 9.88882813 6.46484375 9.31640625 C5.96082031 8.73761719 5.45679688 8.15882812 4.9375 7.5625 C4.43089844 6.98628906 3.92429688 6.41007812 3.40234375 5.81640625 C1.97032326 3.96156077 0.97600054 2.12478587 0 0 Z " fill="#51713C" transform="translate(50,40)"/>
<path d="M0 0 C4.92888113 6.00037703 4.52621197 12.4945556 4 20 C2.90551961 25.47240196 1.2235179 30.39497443 -2 35 C-2.33 34.34 -2.66 33.68 -3 33 C-2.41261827 31.35296982 -1.75384881 29.73116391 -1.0625 28.125 C2.45707953 18.82064443 1.32204759 10.44299353 -1 1 C-0.67 0.67 -0.34 0.34 0 0 Z " fill="#6E7465" transform="translate(96,45)"/>
<path d="M0 0 C1.98 0 3.96 0 6 0 C6.12375 0.721875 6.2475 1.44375 6.375 2.1875 C6.9904931 4.95721894 7.88444374 7.3970354 9 10 C7.68 9.67 6.36 9.34 5 9 C4.06576355 5.98968256 3.95550089 5.13349732 5 2 C4.34 2 3.68 2 3 2 C3 4.64 3 7.28 3 10 C2.01 10 1.02 10 0 10 C0 6.7 0 3.4 0 0 Z " fill="#7A997D" transform="translate(79,94)"/>
<path d="M0 0 C4.03568247 0.03218248 6.52851814 0.65203076 9.75 3.25 C9.75 3.58 9.75 3.91 9.75 4.25 C1.335 4.745 1.335 4.745 -7.25 5.25 C-4.67140468 0.09280936 -4.67140468 0.09280936 0 0 Z " fill="#42652C" transform="translate(74.25,50.75)"/>
<path d="M0 0 C1.65 1.32 3.3 2.64 5 4 C6.32 2.68 7.64 1.36 9 0 C9.33 2.97 9.66 5.94 10 9 C9.01 9 8.02 9 7 9 C6.67 8.34 6.34 7.68 6 7 C4.68 7 3.36 7 2 7 C1.34 6.67 0.68 6.34 0 6 C-0.33 6.99 -0.66 7.98 -1 9 C-0.67 6.03 -0.34 3.06 0 0 Z " fill="#759578" transform="translate(50,95)"/>
<path d="M0 0 C6.57692308 0.57692308 6.57692308 0.57692308 8 2 C8.04080783 3.99958364 8.04254356 6.00045254 8 8 C6.02 8.99 6.02 8.99 4 10 C4.33 7.36 4.66 4.72 5 2 C3.35 2 1.7 2 0 2 C0.66 4.64 1.32 7.28 2 10 C0.68 9.67 -0.64 9.34 -2 9 C-2.125 5.625 -2.125 5.625 -2 2 C-1.34 1.34 -0.68 0.68 0 0 Z " fill="#87A388" transform="translate(92,94)"/>
<path d="M0 0 C2.4699687 3.70495305 2.07153044 6.31528603 1.875 10.5625 C1.69911981 16.81931401 2.35879331 21.49053217 5.22265625 27.1796875 C5.47917969 27.78039062 5.73570313 28.38109375 6 29 C5.67 29.66 5.34 30.32 5 31 C4.18247697 29.41925436 3.37118003 27.83528777 2.5625 26.25 C2.11003906 25.36828125 1.65757813 24.4865625 1.19140625 23.578125 C-0.79705885 19.27521691 -1.13694877 15.80018683 -1.125 11.0625 C-1.12757812 10.04285156 -1.13015625 9.02320313 -1.1328125 7.97265625 C-1.00911936 5.20411275 -0.62526738 2.69460465 0 0 Z " fill="#747A6B" transform="translate(31,49)"/>
<path d="M0 0 C1.98 0 3.96 0 6 0 C6.33 1.65 6.66 3.3 7 5 C5.68 5.33 4.36 5.66 3 6 C3 7.32 3 8.64 3 10 C2.01 10 1.02 10 0 10 C0 6.7 0 3.4 0 0 Z " fill="#89A48A" transform="translate(20,94)"/>
<path d="M0 0 C4.51854431 1.98972775 7.21445201 4.98122179 10 9 C10.875 11.9375 10.875 11.9375 11 14 C10.34 14 9.68 14 9 14 C8.08859335 12.58225631 7.17965255 11.16284818 6.28515625 9.734375 C4.0019241 6.65305258 0.9904072 4.3688057 -2 2 C-1.34 1.34 -0.68 0.68 0 0 Z " fill="#505747" transform="translate(85,32)"/>
<path d="M0 0 C2.31 0 4.62 0 7 0 C7 0.66 7 1.32 7 2 C5.68 2 4.36 2 3 2 C3 4.31 3 6.62 3 9 C4.32 8.67 5.64 8.34 7 8 C7 8.66 7 9.32 7 10 C4.69 10 2.38 10 0 10 C0 6.7 0 3.4 0 0 Z " fill="#89A48A" transform="translate(113,94)"/>
<path d="M0 0 C1.65 0 3.3 0 5 0 C5 2.97 5 5.94 5 9 C3.68 8.67 2.36 8.34 1 8 C-0.35439668 5.29120665 -0.06501451 2.99066732 0 0 Z " fill="#D6DDCF" transform="translate(92,96)"/>
<path d="M0 0 C1.46373047 0.02707031 1.46373047 0.02707031 2.95703125 0.0546875 C3.69308594 0.07789062 4.42914063 0.10109375 5.1875 0.125 C5.5175 0.785 5.8475 1.445 6.1875 2.125 C4.97513672 2.32416016 4.97513672 2.32416016 3.73828125 2.52734375 C2.66964844 2.70394531 1.60101563 2.88054688 0.5 3.0625 C-0.55574219 3.23652344 -1.61148438 3.41054688 -2.69921875 3.58984375 C-5.41499604 4.05667121 -8.11374235 4.56922616 -10.8125 5.125 C-10.8125 4.135 -10.8125 3.145 -10.8125 2.125 C-7.04027911 0.37336544 -4.145861 -0.09990027 0 0 Z " fill="#414838" transform="translate(63.8125,24.875)"/>
<path d="M0 0 C0 0.99 0 1.98 0 3 C-2.31 2.67 -4.62 2.34 -7 2 C-6.34 4.64 -5.68 7.28 -5 10 C-6.32 9.67 -7.64 9.34 -9 9 C-10.32 3.6 -10.32 3.6 -9 1.125 C-6.01705366 -0.55290731 -3.35029961 -0.1896396 0 0 Z " fill="#88A489" transform="translate(76,94)"/>
<path d="M0 0 C0.66 0 1.32 0 2 0 C5 5.625 5 5.625 5 9 C4.34 9 3.68 9 3 9 C3 8.34 3 7.68 3 7 C1.02 7.66 -0.96 8.32 -3 9 C-2.01 6.03 -1.02 3.06 0 0 Z " fill="#698D6D" transform="translate(32,95)"/>
<path d="M0 0 C0.99 0 1.98 0 3 0 C3 2.97 3 5.94 3 9 C4.32 8.67 5.64 8.34 7 8 C7 8.66 7 9.32 7 10 C4.69 10 2.38 10 0 10 C0 6.7 0 3.4 0 0 Z " fill="#829F83" transform="translate(40,94)"/>
<path d="M0 0 C0.66 0 1.32 0 2 0 C0.84414715 3.91211733 -0.35534962 6.8745041 -3 10 C-4.32 7.03 -5.64 4.06 -7 1 C-6.01 1 -5.02 1 -4 1 C-3.67 2.32 -3.34 3.64 -3 5 C-2.34 5 -1.68 5 -1 5 C-0.67 3.35 -0.34 1.7 0 0 Z " fill="#7B9A7D" transform="translate(109,94)"/>
<path d="M0 0 C-0.0625 1.8125 -0.0625 1.8125 -1 4 C-4.5625 5.75 -4.5625 5.75 -8 7 C-6.53112033 2.34854772 -6.53112033 2.34854772 -4 0.6875 C-2 0 -2 0 0 0 Z " fill="#4D5444" transform="translate(53,27)"/>
<path d="M0 0 C1.32 0 2.64 0 4 0 C3.67 1.65 3.34 3.3 3 5 C1.68 4.67 0.36 4.34 -1 4 C-0.67 2.68 -0.34 1.36 0 0 Z " fill="#F9FAF7" transform="translate(76,32)"/>
<path d="M0 0 C0.66 0.33 1.32 0.66 2 1 C1.979375 1.94875 1.95875 2.8975 1.9375 3.875 C1.77448174 6.90666283 1.77448174 6.90666283 3 9 C1.68 8.67 0.36 8.34 -1 8 C-1.04241723 5.66705225 -1.04092937 3.33297433 -1 1 C-0.67 0.67 -0.34 0.34 0 0 Z " fill="#6E9172" transform="translate(91,95)"/>
<path d="M0 0 C0.99 0.66 1.98 1.32 3 2 C3 2.99 3 3.98 3 5 C1.35 5.66 -0.3 6.32 -2 7 C-1.34 4.69 -0.68 2.38 0 0 Z " fill="#99B098" transform="translate(31,97)"/>
</svg>
