<?xml version="1.0" encoding="UTF-8"?>
<svg version="1.1" xmlns="http://www.w3.org/2000/svg" width="500" height="500">
<path d="M0 0 C13.9476812 -0.59026237 22.58711012 1.97816047 34 10 C34.76570313 10.5259375 35.53140625 11.051875 36.3203125 11.59375 C36.87460938 12.0578125 37.42890625 12.521875 38 13 C38 13.66 38 14.32 38 15 C38.66 15 39.32 15 40 15 C46.51936219 26.52164009 46.51936219 26.52164009 48 32 C48.99 31.67 49.98 31.34 51 31 C51.0928125 29.7934375 51.0928125 29.7934375 51.1875 28.5625 C53.6435739 17.79356058 61.07746005 11.19582669 69.9375 5.1875 C78.66524728 0.10204095 87.05454362 -0.42088922 97 0 C95.59879495 6.88802904 90.08865051 10.86385797 84.97265625 15.21484375 C82.58442441 17.37607533 80.61645927 19.7459837 78.58203125 22.234375 C76.17786509 24.91754316 73.42474578 27.14896915 70.63671875 29.421875 C68.74042264 31.00633466 68.74042264 31.00633466 68 34 C69.39798828 33.74863281 69.39798828 33.74863281 70.82421875 33.4921875 C84.11288417 31.36922579 95.96589945 32.31438858 108 39 C111.29414738 41.39574355 114.39464706 43.85515479 117 47 C117 47.99 117 48.98 117 50 C101.82 50.33 86.64 50.66 71 51 C73.64 52.65 76.28 54.3 79 56 C89.05606624 63.54917154 95.49706178 72.87915007 97.3671875 85.47265625 C97.89467007 89.84046927 98.28497873 93.71673758 97 98 C94.13302508 96.71480435 92.02392288 95.42870746 90 93 C90 92.34 90 91.68 90 91 C89.15876587 90.64772339 89.15876587 90.64772339 88.30053711 90.28833008 C85.44161798 88.68729896 83.49414312 86.71861838 81.19140625 84.38671875 C80.27939453 83.46826172 79.36738281 82.54980469 78.42773438 81.60351562 C77.47252616 80.63163825 76.51744907 79.659632 75.5625 78.6875 C74.61179478 77.72675154 73.66062715 76.76646043 72.70898438 75.80664062 C70.94765314 74.02790738 69.18838719 72.24712492 67.43188477 70.46362305 C64.96528028 67.96482716 62.48482708 65.48067301 60 63 C58.7290734 61.72925994 57.45824343 60.45842323 56.1875 59.1875 C55.58292969 58.58292969 54.97835937 57.97835937 54.35546875 57.35546875 C53.90816406 56.90816406 53.46085937 56.46085937 53 56 C52.80088231 68.63291121 53.1000968 81.22425912 53.65625 93.84375 C53.68921173 94.59360168 53.72217346 95.34345337 53.75613403 96.11602783 C53.99779904 101.57764235 54.24802497 107.0388528 54.5 112.5 C56.13207798 147.87262478 56.13207798 147.87262478 56.15625 160.65625 C56.16029846 161.94190857 56.16029846 161.94190857 56.16442871 163.25354004 C56.1301959 168.8698041 56.1301959 168.8698041 55 170 C53.02380553 170.12514928 51.04261827 170.1757276 49.0625 170.1875 C47.98097656 170.20167969 46.89945312 170.21585938 45.78515625 170.23046875 C43 170 43 170 41 168 C40.81713867 165.6550293 40.81713867 165.6550293 40.91796875 162.57421875 C40.95414307 161.35524902 40.99031738 160.1362793 41.02758789 158.88037109 C41.08053657 157.48273389 41.13385599 156.08511069 41.1875 154.6875 C41.2367529 153.20916391 41.28547761 151.73081015 41.33374023 150.25244141 C42.020837 130.11489795 42.96772716 109.98339583 43.87920761 89.85487461 C44.01458408 86.86269032 44.14860584 83.87044593 44.28258133 80.87819862 C44.37627676 78.80049669 44.47220221 76.72290575 44.56820679 74.64530945 C44.86196535 68.08876916 45.07119224 61.56311847 45 55 C44.319375 55.86625 43.63875 56.7325 42.9375 57.625 C40.4188703 60.66894389 37.62281236 63.13285834 34.55078125 65.60546875 C32.7459798 67.11259341 32.7459798 67.11259341 31 70 C30.34 70 29.68 70 29 70 C28.73703125 70.60199219 28.4740625 71.20398438 28.203125 71.82421875 C26.93420534 74.1189858 25.79869084 75.21138351 23.75 76.8125 C21.19999256 78.90318933 19.03431836 81.01754895 16.9375 83.5625 C14.26256251 86.80657312 11.23814325 89.31303007 8 92 C6.23959026 93.94060916 4.62665485 95.94276005 3 98 C1.68 97.67 0.36 97.34 -1 97 C-1.68930734 85.05200618 2.01750022 73.69725775 9 64 C13.95538137 58.78364259 19.56378849 54.21810576 26 51 C10.82 50.67 -4.36 50.34 -20 50 C-16.20734947 42.41469894 -9.60314489 37.48274036 -1.63671875 34.75 C9.71333129 31.52154132 19.47922153 32.33588755 31 34 C28.17516644 30.50819185 25.47860625 27.36143417 22 24.5 C18.58651082 21.59598682 15.87190332 18.44628398 13 15 C11.68418559 13.81360996 10.34942394 12.64801738 9 11.5 C5.56449468 8.56550587 2.69914071 5.62697033 0 2 C0 1.34 0 0.68 0 0 Z " fill="#42652D" transform="translate(183,155)"/>
<path d="M0 0 C1.69446878 1.63839284 3.36576889 3.30151707 5 5 C5.763125 5.7425 6.52625 6.485 7.3125 7.25 C16.71683956 16.87304513 24.27098136 27.01022374 30.1875 39.125 C30.49623047 39.73794922 30.80496094 40.35089844 31.12304688 40.98242188 C37.72845111 55.07675576 39.82983826 69.30550757 39.65185547 84.74072266 C39.62500859 87.49911713 39.65178822 90.25344507 39.68359375 93.01171875 C39.71290476 108.13350689 36.36460365 120.96919616 31 135 C30.34 135 29.68 135 29 135 C28.88785156 135.71542969 28.77570313 136.43085938 28.66015625 137.16796875 C27.95543995 140.19115998 26.86712202 142.56322688 25.4375 145.3125 C24.98246094 146.19550781 24.52742187 147.07851563 24.05859375 147.98828125 C23.70925781 148.65214844 23.35992187 149.31601562 23 150 C22.34 150 21.68 150 21 150 C20.773125 150.680625 20.54625 151.36125 20.3125 152.0625 C16.74931606 160.037245 10.75341451 165.63190129 4 171 C3.319375 171.763125 2.63875 172.52625 1.9375 173.3125 C1.298125 173.869375 0.65875 174.42625 0 175 C-2.12109375 174.60546875 -2.12109375 174.60546875 -4 174 C-1.32818884 170.84863299 1.33314292 167.71276391 4.15625 164.6953125 C9.58827427 158.87262895 14.003365 152.88411211 18 146 C18.39098877 145.34636475 18.78197754 144.69272949 19.18481445 144.01928711 C22.43124623 138.43665532 24.70887402 132.82567994 26.6875 126.6875 C26.98857666 125.75526611 27.28965332 124.82303223 27.59985352 123.86254883 C33.07839984 106.5196154 34.84258485 85.77181624 30 68 C29.82758789 67.35998047 29.65517578 66.71996094 29.47753906 66.06054688 C26.94772904 56.96320048 23.5664227 48.58184516 19 40.3125 C18.59716797 39.58272949 18.19433594 38.85295898 17.77929688 38.10107422 C14.37220737 32.18515275 10.25480735 27.25480735 5.4375 22.4375 C3 20 3 20 0.5625 16.9375 C-2.06446714 13.92609865 -4.6379892 12.11952855 -8 10 C-8.43699219 9.54496094 -8.87398437 9.08992188 -9.32421875 8.62109375 C-26.3606555 -7.85937537 -53.07269465 -12.58522715 -75.67211914 -12.48608398 C-84.4154185 -12.26436557 -92.71613639 -10.889379 -101.2109375 -8.875 C-105 -8 -105 -8 -108 -8 C-108 -7.34 -108 -6.68 -108 -6 C-110.08219049 -5.18457569 -112.16579761 -4.37276811 -114.25 -3.5625 C-115.41015625 -3.11003906 -116.5703125 -2.65757813 -117.765625 -2.19140625 C-120.18966308 -1.29849367 -122.48286475 -0.54205635 -125 0 C-125 0.66 -125 1.32 -125 2 C-126.43570266 2.81567174 -127.87363434 3.62742093 -129.3125 4.4375 C-130.51326172 5.11619141 -130.51326172 5.11619141 -131.73828125 5.80859375 C-134 7 -134 7 -137 8 C-137.33 8.99 -137.66 9.98 -138 11 C-139.68969365 12.19272493 -141.38209058 13.38198665 -143.09375 14.54296875 C-145.68513481 16.52367886 -147.61138154 18.85343113 -149.66015625 21.375 C-151 23 -151 23 -153.125 25.0625 C-155.20414383 27.08895488 -155.20414383 27.08895488 -157.125 30.25 C-157.74375 31.1575 -158.3625 32.065 -159 33 C-159.66 33 -160.32 33 -161 33 C-161.25007813 33.83789062 -161.50015625 34.67578125 -161.7578125 35.5390625 C-162.88081692 38.66793646 -164.2432282 41.48169374 -165.81787109 44.40332031 C-170.45875754 53.05916302 -173.08067083 61.40335417 -175 71 C-175.22429687 71.95648438 -175.44859375 72.91296875 -175.6796875 73.8984375 C-179.37128565 91.54731084 -177.08150825 108.93597986 -172 126 C-171.68933594 127.07765625 -171.37867188 128.1553125 -171.05859375 129.265625 C-167.59578746 139.88696806 -161.41200278 149.8232467 -154.25 158.328125 C-153 160 -153 160 -153 162 C-152.34 162 -151.68 162 -151 162 C-149.37890625 163.64453125 -149.37890625 163.64453125 -147.5625 165.8125 C-145.02660668 168.82463265 -145.02660668 168.82463265 -142.27734375 171.63671875 C-141 173 -141 173 -141 175 C-142.65 175 -144.3 175 -146 175 C-146.2475 174.38125 -146.495 173.7625 -146.75 173.125 C-147.80213715 170.88378906 -147.80213715 170.88378906 -149.84375 170.1171875 C-152.42640185 168.7790744 -153.85837692 167.19880974 -155.75 165 C-156.36359375 164.29875 -156.9771875 163.5975 -157.609375 162.875 C-159 161 -159 161 -159 159 C-159.66 159 -160.32 159 -161 159 C-165.99533529 152.48290694 -170.2624757 145.30679992 -174 138 C-174.74056641 136.6078125 -174.74056641 136.6078125 -175.49609375 135.1875 C-182.97292672 120.27112501 -184.74594955 104.68501968 -184.5625 88.1875 C-184.55824005 87.36193604 -184.5539801 86.53637207 -184.54959106 85.68579102 C-184.41343826 66.66940014 -181.43168604 50.65072536 -172 34 C-170.9898654 32.00509948 -169.98682075 30.00653552 -169 28 C-168.34 28 -167.68 28 -167 28 C-166.77699219 27.14277344 -166.55398437 26.28554687 -166.32421875 25.40234375 C-164.79150703 21.46431452 -162.57689068 18.68031395 -159.8125 15.5625 C-159.06613281 14.70555542 -159.06613281 14.70555542 -158.3046875 13.83129883 C-156.88185493 12.20959307 -155.44473212 10.60219467 -154 9 C-153.37480469 8.30132812 -152.74960938 7.60265625 -152.10546875 6.8828125 C-147.32288741 1.83259278 -141.69183973 -2.0432795 -136 -6 C-135.28070313 -6.5259375 -134.56140625 -7.051875 -133.8203125 -7.59375 C-127.03830504 -12.40513643 -119.71311822 -15.96632871 -112 -19 C-111.33822754 -19.26264648 -110.67645508 -19.52529297 -109.99462891 -19.79589844 C-73.42970526 -33.41245519 -29.89873979 -23.40644201 0 0 Z " fill="#333A2A" transform="translate(307,130)"/>
<path d="M0 0 C3.80770654 3.40597604 6.18867418 7.26991181 8.75 11.625 C9.16121094 12.305625 9.57242188 12.98625 9.99609375 13.6875 C13 18.73725602 13 18.73725602 13 21 C13.66 21 14.32 21 15 21 C15.2371875 20.33484375 15.474375 19.6696875 15.71875 18.984375 C17.34238555 15.20249219 19.37732446 11.76970801 21.5 8.25 C21.90347656 7.56550781 22.30695313 6.88101562 22.72265625 6.17578125 C25.75446429 1.12276786 25.75446429 1.12276786 28 0 C28.17390259 1.20329956 28.17390259 1.20329956 28.35131836 2.4309082 C28.87720824 6.05852342 29.40730296 9.68551191 29.9375 13.3125 C30.21110352 15.20645508 30.21110352 15.20645508 30.49023438 17.13867188 C30.66748047 18.34716797 30.84472656 19.55566406 31.02734375 20.80078125 C31.18968506 21.91622314 31.35202637 23.03166504 31.51928711 24.1809082 C31.93786955 27.06737538 31.93786955 27.06737538 33 30 C33.99 30.66 34.98 31.32 36 32 C31.05 32 26.1 32 21 32 C21.66 31.34 22.32 30.68 23 30 C23.02168637 27.09324817 23.02168637 27.09324817 22.625 23.875 C22.51414063 22.77929688 22.40328125 21.68359375 22.2890625 20.5546875 C22.19367188 19.71164062 22.09828125 18.86859375 22 18 C18.65830522 22.8665458 15.47696185 27.63324933 13 33 C12.34 33 11.68 33 11 33 C9.3682707 30.52589781 7.85299836 28.06340341 6.375 25.5 C5.95476562 24.78457031 5.53453125 24.06914062 5.1015625 23.33203125 C4.06111411 21.55853967 3.02971096 19.77974734 2 18 C1.34 22.29 0.68 26.58 0 31 C0.66 31.33 1.32 31.66 2 32 C-1.3 32 -4.6 32 -8 32 C-7.01 31.67 -6.02 31.34 -5 31 C-4.88406494 30.09644775 -4.76812988 29.19289551 -4.64868164 28.26196289 C-4.21783312 24.92003395 -3.78319576 21.57864399 -3.34594727 18.23754883 C-3.15724163 16.78950535 -2.97006273 15.34126209 -2.78442383 13.89282227 C-2.51781897 11.81472623 -2.24578889 9.73740307 -1.97265625 7.66015625 C-1.81031494 6.40855713 -1.64797363 5.15695801 -1.48071289 3.86743164 C-1 1 -1 1 0 0 Z " fill="#4C7753" transform="translate(187,328)"/>
<path d="M0 0 C3.75857705 3.28875492 6.12415955 6.06371131 6.73828125 11.16796875 C6.93288985 16.95501411 6.18072718 21.56834379 2.5 26.1875 C-2.31151871 30.20653328 -7.70721128 30.82450924 -13.81640625 30.5703125 C-19.40633463 29.77291369 -23.0425464 27.6449536 -27 23.6875 C-29.43614876 18.00315289 -29.66028359 11.90301488 -27.8046875 5.9609375 C-25.63018126 1.6667445 -22.90999054 -0.15875355 -18.5 -1.8125 C-12.33994274 -3.74888931 -5.66129315 -2.9317411 0 0 Z M-18.5 4.1875 C-21.41506494 8.86375001 -21.00917101 13.85663378 -20.5 19.1875 C-18.96696367 23.3485986 -18.19096643 24.72685571 -14.5 27.1875 C-11.08500409 27.85457548 -11.08500409 27.85457548 -7.5 27.1875 C-3.54212735 23.91795303 -2.23396527 21.37217549 -1.5 16.3125 C-1.22954704 11.1893483 -2.17700717 7.75338246 -4.5 3.1875 C-6.67227008 0.87041191 -7.83414321 0.30701276 -10.9375 -0.25 C-14.40403159 0.34184686 -16.00043844 1.75549416 -18.5 4.1875 Z " fill="#4D7654" transform="translate(341.5,330.8125)"/>
<path d="M0 0 C3.39554235 -0.11660824 6.79056679 -0.18738372 10.1875 -0.25 C11.14720703 -0.28351563 12.10691406 -0.31703125 13.09570312 -0.3515625 C17.51372348 -0.41271157 20.22697633 -0.44713164 24.11328125 1.80078125 C26.73920813 4.86164425 27 7.00264718 27 11 C25.625 13.8125 25.625 13.8125 24 16 C23.67 16.66 23.34 17.32 23 18 C24.07513054 19.60967578 25.16046844 21.21253663 26.25 22.8125 C26.85328125 23.70582031 27.4565625 24.59914063 28.078125 25.51953125 C29.88870098 27.85635188 31.55465691 29.37157462 34 31 C24.20888542 31.6173032 24.20888542 31.6173032 20.0625 29.5 C17.20836912 26.04044742 14 21.64255622 14 17 C13.34 17 12.68 17 12 17 C12 16.34 12 15.68 12 15 C13.65 14.34 15.3 13.68 17 13 C17.72256829 8.51866426 17.72256829 8.51866426 18 4 C15.69 3.67 13.38 3.34 11 3 C11.33 11.91 11.66 20.82 12 30 C12.99 30.33 13.98 30.66 15 31 C10.05 31 5.1 31 0 31 C0.99 30.34 1.98 29.68 3 29 C3.46685138 26.33721567 3.46685138 26.33721567 3.3984375 23.22265625 C3.40230469 22.06958984 3.40617187 20.91652344 3.41015625 19.72851562 C3.39855469 18.51873047 3.38695312 17.30894531 3.375 16.0625 C3.38660156 14.85658203 3.39820313 13.65066406 3.41015625 12.40820312 C3.40628906 11.25384766 3.40242188 10.09949219 3.3984375 8.91015625 C3.39505371 7.84933838 3.39166992 6.78852051 3.38818359 5.69555664 C2.95693495 2.70095521 2.36046185 1.80921861 0 0 Z " fill="#4D7754" transform="translate(277,329)"/>
<path d="M0 0 C1.03382813 0.09023438 2.06765625 0.18046875 3.1328125 0.2734375 C5.875 0.625 5.875 0.625 8.875 1.625 C8.875 4.595 8.875 7.565 8.875 10.625 C6.875 9.625 6.875 9.625 6 7.6875 C5.01290359 5.56540097 5.01290359 5.56540097 3.25 4.3125 C-0.37101776 3.26431065 -3.59549104 3.43162095 -7.125 4.625 C-10.11727944 7.39285848 -10.99101059 9.48531997 -11.46484375 13.515625 C-11.63919284 19.17848344 -11.55212221 22.92422846 -8.125 27.625 C-5.35399606 29.01050197 -3.1915294 28.8127467 -0.125 28.625 C0.865 27.965 1.855 27.305 2.875 26.625 C3.31327201 24.72042071 3.31327201 24.72042071 3.1875 22.625 C3.18169922 21.573125 3.18169922 21.573125 3.17578125 20.5 C3.02412946 18.3833423 3.02412946 18.3833423 0.875 16.625 C5.165 16.625 9.455 16.625 13.875 16.625 C13.215 17.615 12.555 18.605 11.875 19.625 C11.7925 20.924375 11.71 22.22375 11.625 23.5625 C11.25956547 27.24391449 11.05798421 27.46986122 8 30.0625 C2.22139094 32.95180453 -2.75641022 33.12682298 -9.125 32.625 C-13.85831657 30.98985428 -16.51974106 28.90506826 -19.125 24.625 C-21.05859058 19.41227901 -21.60273938 14.76591019 -19.9609375 9.4140625 C-18.05991767 5.34552473 -14.762165 3.04977667 -11.125 0.625 C-7.2872539 -0.45477263 -3.9510842 -0.36639127 0 0 Z " fill="#4C7653" transform="translate(259.125,328.375)"/>
<path d="M0 0 C3.39554235 -0.11660824 6.79056679 -0.18738372 10.1875 -0.25 C11.14720703 -0.28351563 12.10691406 -0.31703125 13.09570312 -0.3515625 C17.5162734 -0.41274686 20.22653848 -0.44835536 24.11328125 1.8046875 C26.75534619 4.87889142 27 6.97716045 27 11 C26 14.3125 26 14.3125 24 17 C20.18423548 18.69589534 18.09550362 19.32632023 14.0625 18.125 C13.381875 17.75375 12.70125 17.3825 12 17 C12 16.34 12 15.68 12 15 C13.65 14.34 15.3 13.68 17 13 C17.67673447 9.59679066 17.67673447 9.59679066 18 6 C15.86132495 3.49152482 15.86132495 3.49152482 11 3 C11.33 11.91 11.66 20.82 12 30 C12.99 30.33 13.98 30.66 15 31 C10.05 31 5.1 31 0 31 C0.99 30.67 1.98 30.34 3 30 C3.08690253 25.56262288 3.14035926 21.12546366 3.1875 16.6875 C3.21263672 15.42486328 3.23777344 14.16222656 3.26367188 12.86132812 C3.27333984 11.65283203 3.28300781 10.44433594 3.29296875 9.19921875 C3.3086792 8.08377686 3.32438965 6.96833496 3.34057617 5.8190918 C3.24821791 2.96795151 3.24821791 2.96795151 1.48168945 1.11254883 C0.99273193 0.74540771 0.50377441 0.3782666 0 0 Z " fill="#4C7654" transform="translate(87,329)"/>
<path d="M0 0 C2.81649642 2.44756566 4.07010421 4.9695794 5.55859375 8.3671875 C6.02716797 9.41777344 6.49574219 10.46835937 6.97851562 11.55078125 C7.94766592 13.75893894 8.91641885 15.96727107 9.88476562 18.17578125 C10.35462891 19.22894531 10.82449219 20.28210938 11.30859375 21.3671875 C11.93979126 22.80747314 11.93979126 22.80747314 12.58374023 24.27685547 C14.17283657 27.54732621 14.17283657 27.54732621 18 32 C13.05 32 8.1 32 3 32 C3.66 31.67 4.32 31.34 5 31 C4.34 29.02 3.68 27.04 3 25 C0.03 25 -2.94 25 -6 25 C-6.66 26.98 -7.32 28.96 -8 31 C-7.34 31.33 -6.68 31.66 -6 32 C-9.63 32 -13.26 32 -17 32 C-16.40147217 31.46914795 -15.80294434 30.9382959 -15.1862793 30.39135742 C-12.68171078 27.6518545 -11.48603681 25.14322833 -10.01953125 21.73828125 C-9.49552734 20.53751953 -8.97152344 19.33675781 -8.43164062 18.09960938 C-7.89149877 16.83742279 -7.35179021 15.5750507 -6.8125 14.3125 C-5.73926177 11.82785404 -4.66075785 9.34555546 -3.58203125 6.86328125 C-3.10999268 5.76282471 -2.6379541 4.66236816 -2.15161133 3.52856445 C-1 1 -1 1 0 0 Z M-2 13 C-3.485 16.96 -3.485 16.96 -5 21 C-2.69 21 -0.38 21 2 21 C1.01 18.36 0.02 15.72 -1 13 C-1.33 13 -1.66 13 -2 13 Z " fill="#4D7753" transform="translate(132,328)"/>
<path d="M0 0 C0 2.97 0 5.94 0 9 C-0.4640625 8.0409375 -0.4640625 8.0409375 -0.9375 7.0625 C-4.18910204 3.81089796 -7.49353855 4.26124414 -12 4 C-12 7.96 -12 11.92 -12 16 C-7.92584936 15.82826291 -7.92584936 15.82826291 -4 15 C-3.34 13.68 -2.68 12.36 -2 11 C-2 14.63 -2 18.26 -2 22 C-2.66 21.67 -3.32 21.34 -4 21 C-4 20.34 -4 19.68 -4 19 C-6.64 18.67 -9.28 18.34 -12 18 C-12 21.96 -12 25.92 -12 30 C-10.576875 29.731875 -9.15375 29.46375 -7.6875 29.1875 C-6.88699219 29.03667969 -6.08648437 28.88585937 -5.26171875 28.73046875 C-2.72936328 27.91259229 -1.66990561 27.03985393 0 25 C0.33 24.34 0.66 23.68 1 23 C1.66 23 2.32 23 3 23 C2.34 25.97 1.68 28.94 1 32 C-6.92 32 -14.84 32 -23 32 C-22.01 31.67 -21.02 31.34 -20 31 C-19.91309747 26.56262288 -19.85964074 22.12546366 -19.8125 17.6875 C-19.78736328 16.42486328 -19.76222656 15.16222656 -19.73632812 13.86132812 C-19.72666016 12.65283203 -19.71699219 11.44433594 -19.70703125 10.19921875 C-19.6913208 9.08377686 -19.67561035 7.96833496 -19.65942383 6.8190918 C-19.75178209 3.96795151 -19.75178209 3.96795151 -21.51831055 2.11254883 C-22.00726807 1.74540771 -22.49622559 1.3782666 -23 1 C-19.54170353 0.83256252 -16.08335707 0.66618079 -12.625 0.5 C-11.64015625 0.45230469 -10.6553125 0.40460938 -9.640625 0.35546875 C-8.69960938 0.31035156 -7.75859375 0.26523437 -6.7890625 0.21875 C-5.91975098 0.17685547 -5.05043945 0.13496094 -4.15478516 0.09179688 C-2.77077412 0.03283606 -1.38526637 0 0 0 Z " fill="#4D7653" transform="translate(409,328)"/>
<path d="M0 0 C4.95 0 9.9 0 15 0 C14.67 1.32 14.34 2.64 14 4 C14.96999672 6.99050964 14.96999672 6.99050964 16.4375 10.0625 C19 15.71117166 19 15.71117166 19 19 C19.66 19 20.32 19 21 19 C21.19335938 18.40832031 21.38671875 17.81664062 21.5859375 17.20703125 C21.84632813 16.41683594 22.10671875 15.62664062 22.375 14.8125 C22.78105469 13.57693359 22.78105469 13.57693359 23.1953125 12.31640625 C24 10 24 10 25.25 7.25 C26.34626363 4.58138277 26.34626363 4.58138277 25 0 C28.63 0 32.26 0 36 0 C34.93652344 1.08861328 34.93652344 1.08861328 33.8515625 2.19921875 C29.04277906 7.96535337 26.75955213 15.45402557 23.9296875 22.31835938 C23.23359375 23.96481445 23.23359375 23.96481445 22.5234375 25.64453125 C22.11013184 26.64846924 21.69682617 27.65240723 21.27099609 28.68676758 C20 31 20 31 17 32 C16.62713867 31.17274414 16.25427734 30.34548828 15.87011719 29.49316406 C14.47575745 26.41103182 13.07339371 23.33280835 11.66552734 20.25683594 C11.05911197 18.92757343 10.45587612 17.59685544 9.85595703 16.26464844 C8.99052695 14.34434089 8.11360425 12.42964666 7.234375 10.515625 C6.71069336 9.36352539 6.18701172 8.21142578 5.64746094 7.02441406 C3.95488274 3.57793735 3.95488274 3.57793735 0 0 Z " fill="#4D7655" transform="translate(349,329)"/>
<path d="M0 0 C4.95 0 9.9 0 15 0 C13.515 1.485 13.515 1.485 12 3 C11.4939264 5.8028729 11.4939264 5.8028729 11.48828125 8.98046875 C11.45283203 10.14384766 11.41738281 11.30722656 11.38085938 12.50585938 C11.34702148 14.32827148 11.34702148 14.32827148 11.3125 16.1875 C11.27833984 17.41404297 11.24417969 18.64058594 11.20898438 19.90429688 C11.1264059 22.93610678 11.05728631 25.96762379 11 29 C12.44010481 28.74337755 13.8770687 28.46909179 15.3125 28.1875 C16.11300781 28.03667969 16.91351563 27.88585937 17.73828125 27.73046875 C20.27063672 26.91259229 21.33009439 26.03985393 23 24 C23.33 23.34 23.66 22.68 24 22 C24.66 22 25.32 22 26 22 C25.34 24.97 24.68 27.94 24 31 C16.08 31 8.16 31 0 31 C0.99 30.67 1.98 30.34 3 30 C3.08708752 25.7501291 3.14042181 21.50048761 3.1875 17.25 C3.21263672 16.0434375 3.23777344 14.836875 3.26367188 13.59375 C3.27817383 11.85351562 3.27817383 11.85351562 3.29296875 10.078125 C3.3086792 9.00981445 3.32438965 7.94150391 3.34057617 6.84082031 C3.18692112 3.5540799 3.18692112 3.5540799 0 0 Z " fill="#4D7754" transform="translate(152,329)"/>
<path d="M0 0 C1.45599609 0.00580078 1.45599609 0.00580078 2.94140625 0.01171875 C5.4375 0.3125 5.4375 0.3125 7.4375 2.3125 C7.73828125 5.0625 7.73828125 5.0625 7.75 8.3125 C7.76675781 9.385 7.78351563 10.4575 7.80078125 11.5625 C7.68089844 12.47 7.56101562 13.3775 7.4375 14.3125 C3.40190375 17.0028975 0.17401279 16.97082398 -4.5625 16.3125 C-7.125 14.875 -7.125 14.875 -8.5625 12.3125 C-9.15441409 8.49947202 -9.6036244 4.86384431 -7.3828125 1.5546875 C-4.85770526 -0.16845435 -3.03117102 -0.05247034 0 0 Z " fill="#FDFDFD" transform="translate(274.5625,127.6875)"/>
<path d="M0 0 C0.66 0 1.32 0 2 0 C3.2890625 1.53125 3.2890625 1.53125 4.625 3.5 C5.07101562 4.1496875 5.51703125 4.799375 5.9765625 5.46875 C6.31429688 5.9740625 6.65203125 6.479375 7 7 C7.33 5.02 7.66 3.04 8 1 C8.99 1 9.98 1 11 1 C11 5.95 11 10.9 11 16 C6.61364256 13.80682128 5.48743095 12.08649371 3 8 C2.67 10.31 2.34 12.62 2 15 C1.34 15 0.68 15 0 15 C0 10.05 0 5.1 0 0 Z " fill="#4E7555" transform="translate(291,375)"/>
<path d="M0 0 C1.12820513 5.51566952 1.12820513 5.51566952 0.4375 8.125 C-0.15557267 10.66674001 0.68090268 11.82736912 2 14 C-0.88575819 13.60196439 -1.82189513 13.20990931 -3.75 10.9375 C-4.1625 10.298125 -4.575 9.65875 -5 9 C-5.33 10.65 -5.66 12.3 -6 14 C-6.66 14 -7.32 14 -8 14 C-8 9.38 -8 4.76 -8 0 C-5.13822943 -1.43088528 -3.06624227 -0.59991697 0 0 Z M-6 2 C-6 3.32 -6 4.64 -6 6 C-4.68 5.67 -3.36 5.34 -2 5 C-2.33 4.01 -2.66 3.02 -3 2 C-3.99 2 -4.98 2 -6 2 Z " fill="#4E7852" transform="translate(350,376)"/>
<path d="M0 0 C0.99 0.33 1.98 0.66 3 1 C4.16796875 3.3984375 4.16796875 3.3984375 5.1875 6.375 C5.53167969 7.35210937 5.87585938 8.32921875 6.23046875 9.3359375 C7 12 7 12 7 15 C6.01 15 5.02 15 4 15 C4 14.01 4 13.02 4 12 C1.52733235 12.34444881 1.52733235 12.34444881 -1 13 C-1.33 13.66 -1.66 14.32 -2 15 C-2.99 14.67 -3.98 14.34 -5 14 C-3.35 9.38 -1.7 4.76 0 0 Z M1 6 C0.67 6.99 0.34 7.98 0 9 C0.66 9 1.32 9 2 9 C1.67 8.01 1.34 7.02 1 6 Z " fill="#4D7853" transform="translate(183,375)"/>
<path d="M0 0 C0.66 0 1.32 0 2 0 C2 1.98 2 3.96 2 6 C3.98 6 5.96 6 8 6 C8 4.02 8 2.04 8 0 C8.99 0 9.98 0 11 0 C11 4.62 11 9.24 11 14 C10.01 14 9.02 14 8 14 C8 12.02 8 10.04 8 8 C6.02 8 4.04 8 2 8 C2 9.98 2 11.96 2 14 C1.34 14 0.68 14 0 14 C0 9.38 0 4.76 0 0 Z " fill="#4D7653" transform="translate(229,376)"/>
<path d="M0 0 C0.99 0 1.98 0 3 0 C3 1.98 3 3.96 3 6 C4.98 6 6.96 6 9 6 C9 4.02 9 2.04 9 0 C9.66 0 10.32 0 11 0 C11 4.62 11 9.24 11 14 C10.34 14 9.68 14 9 14 C9 12.02 9 10.04 9 8 C7.02 8 5.04 8 3 8 C3 9.98 3 11.96 3 14 C2.01 14 1.02 14 0 14 C0 9.38 0 4.76 0 0 Z " fill="#4D7654" transform="translate(145,376)"/>
<path d="M0 0 C2.46800047 1.15173355 4.04783565 2.04783565 6 4 C6 4.99 6 5.98 6 7 C-9.18 7.33 -24.36 7.66 -40 8 C-40.33 8.66 -40.66 9.32 -41 10 C-41.680625 9.690625 -42.36125 9.38125 -43.0625 9.0625 C-46.36965912 7.86629351 -49.51545878 7.40994603 -53 7 C-53 6.67 -53 6.34 -53 6 C-24.785 5.505 -24.785 5.505 4 5 C2.68 3.35 1.36 1.7 0 0 Z " fill="#658253" transform="translate(294,198)"/>
<path d="M0 0 C0 0.66 0 1.32 0 2 C-1.98 2.33 -3.96 2.66 -6 3 C-6.33 5.64 -6.66 8.28 -7 11 C-4.69 11.33 -2.38 11.66 0 12 C-0.33 12.99 -0.66 13.98 -1 15 C-4.375 14.6875 -4.375 14.6875 -8 14 C-9.99825961 11.00261059 -10.27550398 10.36652492 -10.25 7 C-10.25515625 6.319375 -10.2603125 5.63875 -10.265625 4.9375 C-10 3 -10 3 -8 0 C-4.71023192 -1.09658936 -3.28696233 -0.79953138 0 0 Z " fill="#517855" transform="translate(268,376)"/>
<path d="M0 0 C2.64 0 5.28 0 8 0 C8 0.66 8 1.32 8 2 C6.02 2 4.04 2 2 2 C2 3.32 2 4.64 2 6 C3.98 6 5.96 6 8 6 C8 6.66 8 7.32 8 8 C6.02 8 4.04 8 2 8 C2 9.32 2 10.64 2 12 C3.98 12 5.96 12 8 12 C8 12.66 8 13.32 8 14 C5.36 14 2.72 14 0 14 C0 9.38 0 4.76 0 0 Z " fill="#4D7654" transform="translate(326,376)"/>
<path d="M0 0 C2.64 0 5.28 0 8 0 C8 0.66 8 1.32 8 2 C6.02 2 4.04 2 2 2 C2 3.32 2 4.64 2 6 C3.98 6 5.96 6 8 6 C8 6.66 8 7.32 8 8 C6.02 8 4.04 8 2 8 C2 9.32 2 10.64 2 12 C3.98 12 5.96 12 8 12 C8 12.66 8 13.32 8 14 C5.36 14 2.72 14 0 14 C0 9.38 0 4.76 0 0 Z " fill="#4D7654" transform="translate(275,376)"/>
<path d="M0 0 C2.64 0 5.28 0 8 0 C8 0.66 8 1.32 8 2 C6.02 2 4.04 2 2 2 C2 3.32 2 4.64 2 6 C3.98 6 5.96 6 8 6 C8 6.66 8 7.32 8 8 C6.02 8 4.04 8 2 8 C2 9.32 2 10.64 2 12 C3.98 12 5.96 12 8 12 C8 12.66 8 13.32 8 14 C5.36 14 2.72 14 0 14 C0 9.38 0 4.76 0 0 Z " fill="#4D7654" transform="translate(164,376)"/>
<path d="M0 0 C3.63 0 7.26 0 11 0 C11 0.66 11 1.32 11 2 C9.68 2 8.36 2 7 2 C7 5.96 7 9.92 7 14 C6.01 14 5.02 14 4 14 C4 10.04 4 6.08 4 2 C2.68 2 1.36 2 0 2 C0 1.34 0 0.68 0 0 Z " fill="#4C7753" transform="translate(211,376)"/>
<path d="M0 0 C3.96 0 7.92 0 12 0 C12 0.66 12 1.32 12 2 C10.35 2 8.7 2 7 2 C7 5.96 7 9.92 7 14 C6.34 14 5.68 14 5 14 C5 10.04 5 6.08 5 2 C3.35 2 1.7 2 0 2 C0 1.34 0 0.68 0 0 Z " fill="#4D7754" transform="translate(308,376)"/>
<path d="M0 0 C0.66 0 1.32 0 2 0 C2 3.96 2 7.92 2 12 C4.31 12 6.62 12 9 12 C9 12.66 9 13.32 9 14 C6.03 14 3.06 14 0 14 C0 9.38 0 4.76 0 0 Z " fill="#4D7653" transform="translate(197,376)"/>
<path d="M0 0 C0.99 0.33 1.98 0.66 3 1 C2.67 3.97 2.34 6.94 2 10 C1.34 9.67 0.68 9.34 0 9 C0 6.03 0 3.06 0 0 Z " fill="#70865C" transform="translate(169,314)"/>
<path d="M0 0 C0 3 0 3 -1.6796875 5.04296875 C-2.76636719 6.10451172 -2.76636719 6.10451172 -3.875 7.1875 C-4.95394531 8.26064453 -4.95394531 8.26064453 -6.0546875 9.35546875 C-8 11 -8 11 -10 11 C-8.55218207 7.55571735 -6.72305391 5.63869038 -3.875 3.25 C-3.15054688 2.63640625 -2.42609375 2.0228125 -1.6796875 1.390625 C-0.84824219 0.70226562 -0.84824219 0.70226562 0 0 Z " fill="#587037" transform="translate(201,211)"/>
<path d="M0 0 C1.485 0.99 1.485 0.99 3 2 C3 2.99 3 3.98 3 5 C2.34 5 1.68 5 1 5 C0.67 3.35 0.34 1.7 0 0 Z " fill="#7B8C47" transform="translate(196,174)"/>
<path d="M0 0 C0.33 1.32 0.66 2.64 1 4 C0.34 4 -0.32 4 -1 4 C-0.67 2.68 -0.34 1.36 0 0 Z " fill="#AA936C" transform="translate(265,175)"/>
<path d="" fill="#FFFFFF" transform="translate(0,0)"/>
<path d="" fill="#00FF00" transform="translate(0,0)"/>
<path d="" fill="#000000" transform="translate(0,0)"/>
</svg>
